<?xml version="1.0" encoding="UTF-8" standalone="no"?>
<!-- Created with Inkscape (http://www.inkscape.org/) -->

<svg
   width="43.387817mm"
   height="40.619278mm"
   viewBox="0 0 43.387817 40.619278"
   version="1.1"
   id="svg5"
   xml:space="preserve"
   xmlns:inkscape="http://www.inkscape.org/namespaces/inkscape"
   xmlns:sodipodi="http://sodipodi.sourceforge.net/DTD/sodipodi-0.dtd"
   xmlns="http://www.w3.org/2000/svg"
   xmlns:svg="http://www.w3.org/2000/svg"><sodipodi:namedview
     id="namedview7"
     pagecolor="#505050"
     bordercolor="#eeeeee"
     borderopacity="1"
     inkscape:showpageshadow="0"
     inkscape:pageopacity="0"
     inkscape:pagecheckerboard="0"
     inkscape:deskcolor="#505050"
     inkscape:document-units="mm"
     showgrid="false" /><defs
     id="defs2" /><g
     inkscape:label="Layer 1"
     inkscape:groupmode="layer"
     id="layer1"
     transform="translate(-141.94535,-217.62534)"><path
       id="rect48741"
       style="opacity:1;fill:none;fill-opacity:1;stroke:#a0ff8f;stroke-width:2;stroke-linecap:round;stroke-linejoin:round;stroke-dasharray:none;stroke-opacity:1"
       d="m 181.49567,248.49522 v -18.65666 h 1.33507 l 1.50246,-5.63901 h -6.92168 v -5.5742 H 149.867 v 5.5742 h -6.92168 l 1.45175,5.63901 h 1.38523 v 21.86792 h -0.0377 c -0.75322,0 -1.3593,0.60664 -1.3593,1.35988 v 1.38862 h -0.022 c -0.75646,0 -1.36551,0.60905 -1.36551,1.36552 v 1.42412 h 13.8242 v -1.42412 c 0,-0.75647 -0.60906,-1.36552 -1.36552,-1.36552 h -0.022 v -1.38862 c 0,-0.75324 -0.60665,-1.35988 -1.35988,-1.35988 h -0.0592 v -11.08133 c 0,-5.32019 4.28292,-9.60368 9.60313,-9.60368 5.32017,0 9.60367,4.28349 9.60367,9.60368 v 11.08133 h -0.0356 c -0.75323,0 -1.35931,0.60666 -1.35931,1.35988 v 1.38862 h -0.0226 c -0.75645,0 -1.36551,0.60906 -1.36551,1.36552 v 1.42412 h 13.82419 v -1.42412 c 0,-0.75646 -0.60907,-1.36552 -1.36551,-1.36552 h -0.022 v -1.38862 c 0,-0.75322 -0.60665,-1.35988 -1.35988,-1.35988 h -0.0203"
       sodipodi:nodetypes="ccccccccccccsscssccsscsscssscsscssccsscssc" /></g></svg>
