<?xml version="1.0" encoding="UTF-8" standalone="no"?>
<!-- Created with Inkscape (http://www.inkscape.org/) -->

<svg
   width="9.2371521mm"
   height="21.580925mm"
   viewBox="0 0 9.2371521 21.580925"
   version="1.1"
   id="svg5"
   xml:space="preserve"
   xmlns:inkscape="http://www.inkscape.org/namespaces/inkscape"
   xmlns:sodipodi="http://sodipodi.sourceforge.net/DTD/sodipodi-0.dtd"
   xmlns="http://www.w3.org/2000/svg"
   xmlns:svg="http://www.w3.org/2000/svg"><sodipodi:namedview
     id="namedview7"
     pagecolor="#505050"
     bordercolor="#eeeeee"
     borderopacity="1"
     inkscape:showpageshadow="0"
     inkscape:pageopacity="0"
     inkscape:pagecheckerboard="0"
     inkscape:deskcolor="#505050"
     inkscape:document-units="mm"
     showgrid="false" /><defs
     id="defs2" /><g
     inkscape:label="Layer 1"
     inkscape:groupmode="layer"
     id="layer1"
     transform="translate(-119.97801,-120.39655)"><g
       id="g6160"
       transform="rotate(-97.384075,125.17134,130.92088)"
       inkscape:export-filename="finger_icon.svg"
       inkscape:export-xdpi="1232.1135"
       inkscape:export-ydpi="1232.1135"><path
         style="color:#000000;fill:#a0ff8f;stroke-linecap:round;stroke-linejoin:round;-inkscape-stroke:none"
         d="m 123.31836,125.60352 a 0.15001501,0.15001501 0 0 0 -0.0332,0.006 l -1.45118,0.38671 -1.10546,-0.0273 a 0.15001501,0.15001501 0 0 0 -0.0781,0.0176 c -0.0323,0.0181 -0.0342,0.0263 -0.043,0.0352 -0.009,0.009 -0.017,0.0171 -0.0254,0.0273 -0.0168,0.0205 -0.0336,0.0454 -0.0527,0.0762 -0.0382,0.0615 -0.0808,0.14469 -0.10742,0.24609 -0.0533,0.20281 -0.0343,0.48758 0.1875,0.74219 0.43758,0.50232 1.59093,0.90458 4.4082,0.91797 0.36796,0.81706 1.2752,2.78804 3.66992,2.9707 a 0.15000001,0.15000001 0 0 0 0.16211,-0.13867 0.15000001,0.15000001 0 0 0 -0.13867,-0.16016 c -2.29045,-0.17471 -3.11887,-2.09485 -3.47071,-2.87695 a 0.15001501,0.15001501 0 0 0 -0.13671,-0.0879 c -2.87352,-0.002 -3.94939,-0.457 -4.26758,-0.82226 -0.1591,-0.18264 -0.15775,-0.33685 -0.12305,-0.46875 0.0173,-0.066 0.0454,-0.12388 0.0703,-0.16407 0.004,-0.006 0.006,-0.008 0.01,-0.0137 l 1.05469,0.0273 a 0.15001501,0.15001501 0 0 0 0.043,-0.006 l 1.44531,-0.38477 c 3.1766,-0.0866 4.70569,0.88392 5.96679,1.86133 a 0.15000001,0.15000001 0 0 0 0.20899,-0.0273 0.15000001,0.15000001 0 0 0 -0.0254,-0.21093 c -1.28018,-0.99219 -2.91961,-2.01659 -6.16797,-1.92578 z"
         id="path4994" /><path
         style="color:#000000;fill:#a0ff8f;stroke-linecap:round;stroke-linejoin:round;-inkscape-stroke:none"
         d="m 117.36133,125.97266 c -0.96306,0.014 -1.83846,0.0683 -2.31445,0.28125 -0.36413,0.16287 -0.54522,0.50954 -0.50391,0.83203 0.0413,0.32249 0.31674,0.6096 0.75,0.64844 1.75276,0.15717 3.35211,0.29519 5.2832,0.38867 -0.0397,0.22049 -0.0765,0.45511 -0.0273,0.70312 0.0615,0.31072 0.22358,0.62021 0.54101,0.80664 0.19841,0.11653 0.46836,0.15894 0.79297,0.17774 0.32461,0.0188 0.70347,0.008 1.10547,-0.0156 0.804,-0.0465 1.69919,-0.14195 2.38867,-0.1582 a 0.15000001,0.15000001 0 0 0 0.14649,-0.1543 0.15000001,0.15000001 0 0 0 -0.1543,-0.14648 c -0.71095,0.0168 -1.60553,0.11428 -2.39844,0.16015 -0.39645,0.0229 -0.76613,0.0313 -1.07031,0.0137 -0.30417,-0.0176 -0.54334,-0.0693 -0.6582,-0.13672 -0.23302,-0.13686 -0.35051,-0.35358 -0.40039,-0.60547 -0.0499,-0.2519 -0.0229,-0.53167 0.0332,-0.7461 a 0.15001501,0.15001501 0 0 0 -0.13867,-0.18945 c -1.9982,-0.0931 -3.61504,-0.23498 -5.41602,-0.39648 -0.32308,-0.029 -0.45633,-0.19832 -0.48047,-0.38672 -0.0241,-0.1884 0.0735,-0.4067 0.33008,-0.52149 0.35644,-0.15944 1.24566,-0.24008 2.19727,-0.2539 0.95161,-0.0138 1.97998,0.0259 2.69531,0.0547 a 0.15000001,0.15000001 0 0 0 0.15625,-0.14454 0.15000001,0.15000001 0 0 0 -0.14258,-0.15429 c -0.7158,-0.0288 -1.75178,-0.0706 -2.71484,-0.0566 z"
         id="path5413" /><path
         style="color:#000000;fill:#a0ff8f;stroke-linecap:round;stroke-linejoin:round;-inkscape-stroke:none"
         d="m 121.13086,129.9082 a 0.15000001,0.15000001 0 0 0 -0.16797,0.13086 c -0.0284,0.23773 -0.0452,0.54476 0.0254,0.84375 0.0706,0.29899 0.24169,0.59868 0.57227,0.76367 0.26381,0.13167 0.63951,0.12077 1.08789,0.0625 0.44838,-0.0583 0.96376,-0.17841 1.46094,-0.33007 0.49717,-0.15166 0.97542,-0.334 1.3496,-0.51758 0.1871,-0.0918 0.34761,-0.18315 0.47461,-0.27539 0.12701,-0.0922 0.22496,-0.17862 0.27344,-0.30274 a 0.15000001,0.15000001 0 0 0 -0.0859,-0.19531 0.15000001,0.15000001 0 0 0 -0.19336,0.0859 c -0.007,0.0191 -0.0644,0.0933 -0.16992,0.16992 -0.10555,0.0767 -0.25483,0.1613 -0.43164,0.24805 -0.35362,0.17349 -0.82035,0.35225 -1.30469,0.5 -0.48434,0.14774 -0.98746,0.26513 -1.4121,0.32031 -0.42465,0.0552 -0.77749,0.034 -0.91602,-0.0352 -0.24141,-0.12048 -0.35491,-0.32035 -0.41211,-0.5625 -0.0572,-0.24214 -0.0458,-0.51805 -0.0195,-0.73828 a 0.15000001,0.15000001 0 0 0 -0.13086,-0.16797 z"
         id="path6141" /><path
         style="color:#000000;fill:#a0ff8f;stroke-linecap:round;stroke-linejoin:round;-inkscape-stroke:none"
         d="m 125.69727,130.95703 a 0.15000001,0.15000001 0 0 0 -0.10547,0.18359 c 0.09,0.33886 -0.12749,0.76205 -0.54492,1.12305 -0.41744,0.361 -1.01735,0.64123 -1.59375,0.69531 -0.33321,0.0313 -0.63511,-0.0588 -0.8379,-0.22265 -0.20279,-0.16391 -0.31268,-0.39122 -0.27539,-0.6836 a 0.15000001,0.15000001 0 0 0 -0.1289,-0.16796 0.15000001,0.15000001 0 0 0 -0.16797,0.1289 c -0.0498,0.3904 0.10994,0.73453 0.38281,0.95508 0.27288,0.22055 0.65166,0.32688 1.05469,0.28906 0.65119,-0.0611 1.29766,-0.36262 1.76367,-0.76562 0.46601,-0.403 0.77064,-0.92552 0.63672,-1.42969 a 0.15000001,0.15000001 0 0 0 -0.18359,-0.10547 z"
         id="path6143" /><path
         style="color:#000000;fill:#a0ff8f;stroke-linecap:round;stroke-linejoin:round;-inkscape-stroke:none"
         d="m 124.04102,133.38672 a 0.15000001,0.15000001 0 0 0 -0.19336,0.0879 0.15000001,0.15000001 0 0 0 0.0879,0.19336 c 1.00673,0.37322 1.9647,0.31967 2.81445,0.20898 0.84975,-0.11069 1.59761,-0.27055 2.18555,-0.15234 a 0.15000001,0.15000001 0 0 0 0.17578,-0.11719 0.15000001,0.15000001 0 0 0 -0.11719,-0.17773 c -0.6829,-0.1373 -1.4495,0.0398 -2.2832,0.14843 -0.83371,0.10861 -1.73006,0.15703 -2.66992,-0.1914 z"
         id="path6145" /><path
         style="color:#000000;fill:#a0ff8f;stroke-linecap:round;stroke-linejoin:round;-inkscape-stroke:none"
         d="m 129.96289,127.58594 a 0.15001501,0.15001501 0 0 0 -0.14453,0.23828 c 0.17932,0.24204 0.31073,0.73899 0.35547,1.34961 0.0447,0.61062 0.0111,1.3355 -0.0899,2.04883 -0.10095,0.71332 -0.26963,1.4161 -0.49414,1.98437 -0.2245,0.56827 -0.51104,0.99659 -0.79882,1.17188 a 0.15001501,0.15001501 0 0 0 0.0566,0.27539 l 2.7207,0.40625 a 0.15000001,0.15000001 0 0 0 0.16992,-0.125 0.15000001,0.15000001 0 0 0 -0.125,-0.17188 l -2.49609,-0.37305 c 0.29002,-0.26349 0.55918,-0.58626 0.75195,-1.07421 0.2365,-0.59865 0.40809,-1.32047 0.51172,-2.05274 0.10363,-0.73226 0.13856,-1.47309 0.0918,-2.11133 -0.0382,-0.52161 -0.17235,-0.90196 -0.33789,-1.23242 l 1.41406,0.24024 a 0.15000001,0.15000001 0 0 0 0.17383,-0.1211 0.15000001,0.15000001 0 0 0 -0.12305,-0.17383 z"
         id="path6149" /><path
         style="color:#000000;fill:#a0ff8f;stroke-linecap:round;stroke-linejoin:round;-inkscape-stroke:none"
         d="m 131.80469,127.40234 a 0.15001501,0.15001501 0 0 0 -0.11719,0.26172 c 0.31064,0.28108 0.56164,0.87322 0.70898,1.61719 0.14735,0.74397 0.19901,1.63463 0.16602,2.50977 -0.033,0.87513 -0.15074,1.7355 -0.3418,2.41796 -0.19106,0.68246 -0.4696,1.17757 -0.73633,1.33594 a 0.15001501,0.15001501 0 0 0 0.0586,0.2793 l 3.37695,0.40625 a 0.15000001,0.15000001 0 0 0 0.16602,-0.13086 0.15000001,0.15000001 0 0 0 -0.13086,-0.16602 l -3.17188,-0.38281 c 0.3006,-0.28504 0.558,-0.66463 0.72461,-1.25976 0.19992,-0.71408 0.32174,-1.59352 0.35547,-2.48829 0.0337,-0.89476 -0.0203,-1.80499 -0.17383,-2.58007 -0.1289,-0.65089 -0.37547,-1.11884 -0.67187,-1.4961 l 3.97851,0.42188 a 0.15000001,0.15000001 0 0 0 0.16407,-0.13282 0.15000001,0.15000001 0 0 0 -0.13282,-0.16601 z"
         id="path6151" /></g></g></svg>
