<?xml version="1.0" encoding="UTF-8" standalone="no"?>
<!-- Created with Inkscape (http://www.inkscape.org/) -->

<svg
   width="75.170937mm"
   height="32.20549mm"
   viewBox="0 0 75.170937 32.20549"
   version="1.1"
   id="svg5"
   xml:space="preserve"
   xmlns:inkscape="http://www.inkscape.org/namespaces/inkscape"
   xmlns:sodipodi="http://sodipodi.sourceforge.net/DTD/sodipodi-0.dtd"
   xmlns="http://www.w3.org/2000/svg"
   xmlns:svg="http://www.w3.org/2000/svg"><sodipodi:namedview
     id="namedview7"
     pagecolor="#505050"
     bordercolor="#eeeeee"
     borderopacity="1"
     inkscape:showpageshadow="0"
     inkscape:pageopacity="0"
     inkscape:pagecheckerboard="0"
     inkscape:deskcolor="#505050"
     inkscape:document-units="mm"
     showgrid="false" /><defs
     id="defs2" /><g
     inkscape:label="Layer 1"
     inkscape:groupmode="layer"
     id="layer1"
     transform="translate(-121.23388,-154.20466)"><g
       id="g31053"><path
         style="color:#000000;fill:#a0ff8f;stroke-linecap:round;stroke-linejoin:round;-inkscape-stroke:none"
         d="m 145.88477,169.27344 a 0.42704269,0.42704269 0 0 0 -0.25586,0.76953 l 12.98828,9.71875 a 0.42704269,0.42704269 0 0 0 0.51172,0 l 12.98828,-9.71875 a 0.42704269,0.42704269 0 0 0 -0.25586,-0.76953 z m 1.28125,0.85351 h 23.41406 l -11.70703,8.75782 z"
         id="path29307" /><path
         style="color:#000000;fill:#a0ff8f;stroke-linecap:round;stroke-linejoin:round;-inkscape-stroke:none"
         d="m 145.84961,171.41016 a 0.42699999,0.42699999 0 0 0 -0.42774,0.42578 v 14.14843 a 0.42704269,0.42704269 0 0 0 0.42774,0.42579 h 25.99414 a 0.42704269,0.42704269 0 0 0 0.42773,-0.42579 v -14.14843 a 0.42699999,0.42699999 0 0 0 -0.42773,-0.42578 0.42699999,0.42699999 0 0 0 -0.42578,0.42578 v 13.7207 h -25.14258 v -13.7207 a 0.42699999,0.42699999 0 0 0 -0.42578,-0.42578 z"
         id="rect30127" /><path
         style="color:#000000;fill:#a0ff8f;stroke-linecap:round;stroke-linejoin:round;-inkscape-stroke:none"
         d="m 136.67187,154.30078 c -1.0641,-0.28064 -2.5825,0.0811 -4.35546,0.72461 -1.77297,0.64351 -3.76389,1.61126 -5.56641,2.70508 -1.80252,1.09382 -3.41249,2.30549 -4.43164,3.48437 -0.50958,0.58945 -0.87857,1.17113 -1.02539,1.76758 -0.14682,0.59645 -0.0241,1.23419 0.41406,1.70703 0.31123,0.33584 0.75962,0.47203 1.23828,0.4961 0.47867,0.0241 1.01323,-0.0581 1.59571,-0.20703 1.16495,-0.29791 2.5242,-0.87753 3.875,-1.57032 1.35079,-0.69279 2.68862,-1.49858 3.78515,-2.25586 1.09653,-0.75728 1.93932,-1.43574 2.36524,-2.0039 a 0.42699999,0.42699999 0 0 0 -0.0859,-0.59766 0.42699999,0.42699999 0 0 0 -0.59766,0.0859 c -0.27924,0.3725 -1.1055,1.07874 -2.16797,1.8125 -1.06246,0.73375 -2.37462,1.52487 -3.68945,2.19922 -1.31483,0.67435 -2.63719,1.23282 -3.69726,1.5039 -0.53004,0.13555 -0.99375,0.19709 -1.33985,0.17969 -0.3461,-0.0174 -0.54887,-0.10678 -0.65625,-0.22266 -0.25639,-0.27666 -0.30661,-0.5332 -0.21094,-0.92187 0.0957,-0.38867 0.38432,-0.88489 0.8418,-1.41406 0.91495,-1.05835 2.47576,-2.24769 4.23047,-3.3125 1.75471,-1.06481 3.70682,-2.01316 5.41406,-2.63282 1.70724,-0.61965 3.20678,-0.86967 3.8457,-0.70117 0.68856,0.1816 1.1494,0.73148 1.61133,1.65235 0.46194,0.92087 0.88352,2.16847 1.48438,3.53515 1.20171,2.73337 3.16359,5.95493 7.74023,8.07422 a 0.42699999,0.42699999 0 0 0 0.56836,-0.20898 0.42699999,0.42699999 0 0 0 -0.20898,-0.56641 c -4.36458,-2.02109 -6.1533,-4.99257 -7.31836,-7.64258 -0.58253,-1.325 -0.99654,-2.56666 -1.50196,-3.57422 -0.50541,-1.00755 -1.14176,-1.82815 -2.15625,-2.0957 z"
         id="path30130" /><path
         style="color:#000000;fill:#a0ff8f;stroke-linecap:round;stroke-linejoin:round;-inkscape-stroke:none"
         d="m 135.74219,161.41797 a 0.42699999,0.42699999 0 0 0 -0.59375,0.11133 c -1.10894,1.61932 -4.1914,4.35506 -6.69727,5.76953 -1.25293,0.70723 -2.38517,1.03617 -2.8789,0.91406 -0.24687,-0.061 -0.35966,-0.15149 -0.44727,-0.45898 -0.0876,-0.30749 -0.0858,-0.85352 0.10742,-1.64063 a 0.42699999,0.42699999 0 0 0 -0.3125,-0.51562 0.42699999,0.42699999 0 0 0 -0.51562,0.3125 c -0.2128,0.8671 -0.25572,1.53708 -0.10157,2.07812 0.15415,0.54104 0.57123,0.93271 1.06446,1.05469 0.98646,0.24396 2.17962,-0.25249 3.5039,-1 2.64857,-1.49502 5.71952,-4.1871 6.98243,-6.03125 a 0.42699999,0.42699999 0 0 0 -0.11133,-0.59375 z"
         id="path30858" /><path
         style="color:#000000;fill:#a0ff8f;stroke-linecap:round;stroke-linejoin:round;-inkscape-stroke:none"
         d="m 137.5918,164.33008 a 0.42699999,0.42699999 0 0 0 -0.56836,0.19922 c -0.72347,1.50527 -2.98997,4.24004 -4.92774,5.76367 -0.96888,0.76181 -1.88639,1.17679 -2.28711,1.14062 -0.20036,-0.0181 -0.28492,-0.0621 -0.39257,-0.29687 -0.10766,-0.23473 -0.17619,-0.69179 -0.11524,-1.38086 a 0.42699999,0.42699999 0 0 0 -0.38867,-0.46289 0.42699999,0.42699999 0 0 0 -0.46289,0.38867 c -0.0682,0.77113 -0.0175,1.35508 0.1914,1.81055 0.20889,0.45546 0.63868,0.75012 1.0918,0.79101 0.90624,0.0818 1.85929,-0.50785 2.89258,-1.32031 2.06658,-1.62491 4.32646,-4.31358 5.16797,-6.06445 a 0.42699999,0.42699999 0 0 0 -0.20117,-0.56836 z"
         id="path30858-2" /><path
         style="color:#000000;fill:#a0ff8f;stroke-linecap:round;stroke-linejoin:round;-inkscape-stroke:none"
         d="m 138.8125,167.09375 a 0.42699999,0.42699999 0 0 0 -0.5293,0.28906 c -0.34235,1.15965 -1.68156,3.4452 -2.91015,4.78125 -0.6143,0.66803 -1.23834,1.06148 -1.47266,1.07813 -0.11716,0.008 -0.13666,0.0109 -0.22656,-0.12305 -0.0899,-0.13399 -0.19574,-0.44583 -0.23242,-0.94922 a 0.42699999,0.42699999 0 0 0 -0.45704,-0.39453 0.42699999,0.42699999 0 0 0 -0.39453,0.45703 c 0.0427,0.58554 0.1498,1.02568 0.375,1.36133 0.22521,0.33565 0.62579,0.52632 0.9961,0.5 0.74061,-0.0526 1.37126,-0.62323 2.04101,-1.35156 1.33952,-1.45667 2.6801,-3.69619 3.09961,-5.11719 a 0.42699999,0.42699999 0 0 0 -0.28906,-0.53125 z"
         id="path30858-2-2" /><path
         style="color:#000000;fill:#a0ff8f;stroke-linecap:round;stroke-linejoin:round;-inkscape-stroke:none"
         d="m 140.51172,169.28125 a 0.42699999,0.42699999 0 0 0 -0.4961,0.34375 c -0.1703,0.94374 -1.05056,2.91644 -1.91796,4.09375 -0.43371,0.58865 -0.9071,0.94499 -1.04883,0.9707 -0.0709,0.0129 -0.0472,0.0285 -0.11719,-0.0547 -0.07,-0.0832 -0.18316,-0.31238 -0.25586,-0.70899 a 0.42699999,0.42699999 0 0 0 -0.49609,-0.3418 0.42699999,0.42699999 0 0 0 -0.34375,0.4961 c 0.0875,0.47763 0.21502,0.83642 0.4414,1.10547 0.22639,0.26904 0.60326,0.40191 0.92383,0.34375 0.64115,-0.11634 1.10169,-0.65007 1.58399,-1.30469 0.9646,-1.30923 1.85162,-3.23537 2.07031,-4.44727 a 0.42699999,0.42699999 0 0 0 -0.34375,-0.49609 z"
         id="path30858-2-4" /><path
         style="color:#000000;fill:#a0ff8f;stroke-linecap:round;stroke-linejoin:round;-inkscape-stroke:none"
         d="m 142.03516,171.17969 a 0.42699999,0.42699999 0 0 0 -0.43555,0.41797 c -0.0126,0.7171 -0.44122,2.34986 -0.95313,3.34765 -0.25595,0.4989 -0.57981,0.81326 -0.63281,0.83203 -0.0265,0.009 0.04,0.028 -0.004,-0.01 -0.0439,-0.0378 -0.15542,-0.18524 -0.25782,-0.47266 a 0.42699999,0.42699999 0 0 0 -0.54492,-0.25976 0.42699999,0.42699999 0 0 0 -0.25976,0.54492 c 0.13003,0.36501 0.27585,0.63979 0.5039,0.83594 0.22805,0.19615 0.58194,0.26014 0.84766,0.16601 0.53143,-0.18825 0.81407,-0.6743 1.10742,-1.24609 0.58671,-1.14359 1.02948,-2.73311 1.04687,-3.72266 a 0.42699999,0.42699999 0 0 0 -0.41796,-0.43359 z"
         id="path30858-2-2-5" /><path
         style="color:#000000;fill:#a0ff8f;stroke-linecap:round;stroke-linejoin:round;-inkscape-stroke:none"
         d="m 143.78125,172.13672 a 0.42699999,0.42699999 0 0 0 -0.34961,0.49414 c 0.0845,0.49193 -6.2e-4,1.7504 -0.23047,2.53125 -0.099,0.33625 -0.22502,0.49357 -0.25586,0.54492 -0.0382,-0.037 -0.0737,-0.0606 -0.15039,-0.19141 a 0.42699999,0.42699999 0 0 0 -0.58398,-0.15234 0.42699999,0.42699999 0 0 0 -0.15235,0.58399 c 0.15116,0.25798 0.30446,0.45281 0.52539,0.58007 0.22094,0.12726 0.54269,0.12602 0.75196,0.004 0.41854,-0.24422 0.54748,-0.65988 0.68554,-1.12891 0.27613,-0.93804 0.38264,-2.15552 0.25196,-2.91601 a 0.42699999,0.42699999 0 0 0 -0.49219,-0.34961 z"
         id="path30858-2-2-5-1" /><path
         style="color:#000000;fill:#a0ff8f;stroke-linecap:round;stroke-linejoin:round;-inkscape-stroke:none"
         d="m 180.9668,154.30078 c -1.01448,0.26755 -1.65084,1.08815 -2.15625,2.0957 -0.50542,1.00756 -0.92138,2.24922 -1.50391,3.57422 -1.16506,2.65001 -2.95183,5.62149 -7.31641,7.64258 a 0.42699999,0.42699999 0 0 0 -0.20898,0.56641 0.42699999,0.42699999 0 0 0 0.56641,0.20898 c 4.57664,-2.11929 6.54047,-5.34085 7.74218,-8.07422 0.60086,-1.36668 1.02244,-2.61428 1.48438,-3.53515 0.46193,-0.92087 0.92277,-1.47075 1.61133,-1.65235 0.63893,-0.1685 2.13846,0.0815 3.8457,0.70117 1.70724,0.61966 3.65935,1.56801 5.41406,2.63282 1.75471,1.06481 3.31356,2.25415 4.22852,3.3125 0.45747,0.52917 0.74807,1.02539 0.84375,1.41406 0.0957,0.38867 0.0454,0.64521 -0.21094,0.92187 -0.10738,0.11588 -0.31015,0.20526 -0.65625,0.22266 -0.3461,0.0174 -0.80981,-0.0441 -1.33984,-0.17969 -1.06008,-0.27108 -2.38244,-0.82955 -3.69727,-1.5039 -1.31483,-0.67435 -2.62698,-1.46547 -3.68945,-2.19922 -1.06247,-0.73376 -1.88873,-1.44 -2.16797,-1.8125 a 0.42699999,0.42699999 0 0 0 -0.59766,-0.0859 0.42699999,0.42699999 0 0 0 -0.0859,0.59766 c 0.42591,0.56816 1.2687,1.24662 2.36523,2.0039 1.09653,0.75728 2.43437,1.56307 3.78516,2.25586 1.35079,0.69279 2.71004,1.27241 3.875,1.57032 0.58247,0.14895 1.11703,0.23109 1.5957,0.20703 0.47867,-0.0241 0.92705,-0.16026 1.23828,-0.4961 0.43819,-0.47284 0.56089,-1.11058 0.41406,-1.70703 -0.14682,-0.59645 -0.51581,-1.17813 -1.02539,-1.76758 -1.01915,-1.17888 -2.62912,-2.39055 -4.43164,-3.48437 -1.80252,-1.09382 -3.79344,-2.06157 -5.5664,-2.70508 -1.77297,-0.64351 -3.29136,-1.00525 -4.35547,-0.72461 z"
         id="path30130-7" /><path
         style="color:#000000;fill:#a0ff8f;stroke-linecap:round;stroke-linejoin:round;-inkscape-stroke:none"
         d="m 181.89648,161.41797 a 0.42699999,0.42699999 0 0 0 -0.11132,0.59375 c 1.2629,1.84415 4.33385,4.53623 6.98242,6.03125 1.32428,0.74751 2.51744,1.24396 3.5039,1 0.49323,-0.12198 0.91031,-0.51365 1.06446,-1.05469 0.15415,-0.54104 0.11124,-1.21102 -0.10157,-2.07812 a 0.42699999,0.42699999 0 0 0 -0.51562,-0.3125 0.42699999,0.42699999 0 0 0 -0.3125,0.51562 c 0.19317,0.78711 0.19503,1.33314 0.10742,1.64063 -0.0876,0.30749 -0.2004,0.39793 -0.44726,0.45898 -0.49374,0.12211 -1.62598,-0.20683 -2.87891,-0.91406 -2.50587,-1.41447 -5.58832,-4.15021 -6.69727,-5.76953 a 0.42699999,0.42699999 0 0 0 -0.59375,-0.11133 z"
         id="path30858-5" /><path
         style="color:#000000;fill:#a0ff8f;stroke-linecap:round;stroke-linejoin:round;-inkscape-stroke:none"
         d="m 180.04492,164.33008 a 0.42699999,0.42699999 0 0 0 -0.19922,0.56836 c 0.84151,1.75087 3.10139,4.43954 5.16797,6.06445 1.03329,0.81246 1.98634,1.4021 2.89258,1.32031 0.45312,-0.0409 0.88291,-0.33555 1.0918,-0.79101 0.20888,-0.45547 0.25961,-1.03942 0.1914,-1.81055 a 0.42699999,0.42699999 0 0 0 -0.46289,-0.38867 0.42699999,0.42699999 0 0 0 -0.38867,0.46289 c 0.061,0.68907 -0.01,1.14613 -0.11719,1.38086 -0.10765,0.23473 -0.19026,0.27879 -0.39062,0.29687 -0.40072,0.0362 -1.32018,-0.37881 -2.28906,-1.14062 -1.93777,-1.52363 -4.20232,-4.2584 -4.92579,-5.76367 a 0.42699999,0.42699999 0 0 0 -0.57031,-0.19922 z"
         id="path30858-2-7" /><path
         style="color:#000000;fill:#a0ff8f;stroke-linecap:round;stroke-linejoin:round;-inkscape-stroke:none"
         d="m 178.82617,167.09375 a 0.42699999,0.42699999 0 0 0 -0.28906,0.53125 c 0.41951,1.421 1.7601,3.66052 3.09961,5.11719 0.66976,0.72833 1.3004,1.29893 2.04101,1.35156 0.37031,0.0263 0.7709,-0.16435 0.9961,-0.5 0.2252,-0.33565 0.33233,-0.77579 0.375,-1.36133 a 0.42699999,0.42699999 0 0 0 -0.39649,-0.45703 0.42699999,0.42699999 0 0 0 -0.45703,0.39453 c -0.0367,0.50339 -0.14252,0.81523 -0.23242,0.94922 -0.0899,0.13399 -0.10745,0.13137 -0.22461,0.12305 -0.23432,-0.0166 -0.85836,-0.4101 -1.47266,-1.07813 -1.22859,-1.33605 -2.56779,-3.6216 -2.91015,-4.78125 a 0.42699999,0.42699999 0 0 0 -0.5293,-0.28906 z"
         id="path30858-2-2-1" /><path
         style="color:#000000;fill:#a0ff8f;stroke-linecap:round;stroke-linejoin:round;-inkscape-stroke:none"
         d="m 177.12695,169.28125 a 0.42699999,0.42699999 0 0 0 -0.34375,0.49609 c 0.21869,1.2119 1.10572,3.13804 2.07032,4.44727 0.4823,0.65462 0.94284,1.18835 1.58398,1.30469 0.32057,0.0582 0.69744,-0.0747 0.92383,-0.34375 0.22638,-0.26905 0.3519,-0.62784 0.43945,-1.10547 a 0.42699999,0.42699999 0 0 0 -0.3418,-0.4961 0.42699999,0.42699999 0 0 0 -0.49804,0.3418 c -0.0727,0.39661 -0.18387,0.62575 -0.25391,0.70899 -0.07,0.0832 -0.0463,0.0675 -0.11719,0.0547 -0.14173,-0.0257 -0.61512,-0.38205 -1.04882,-0.9707 -0.86741,-1.17731 -1.74767,-3.15001 -1.91797,-4.09375 a 0.42699999,0.42699999 0 0 0 -0.4961,-0.34375 z"
         id="path30858-2-4-6" /><path
         style="color:#000000;fill:#a0ff8f;stroke-linecap:round;stroke-linejoin:round;-inkscape-stroke:none"
         d="m 175.60352,171.17969 a 0.42699999,0.42699999 0 0 0 -0.41993,0.43359 c 0.0174,0.98955 0.46213,2.57907 1.04883,3.72266 0.29336,0.57179 0.57599,1.05784 1.10742,1.24609 0.26572,0.0941 0.61766,0.0301 0.84571,-0.16601 0.22805,-0.19615 0.37582,-0.47093 0.50586,-0.83594 a 0.42699999,0.42699999 0 0 0 -0.25977,-0.54492 0.42699999,0.42699999 0 0 0 -0.54492,0.25976 c -0.1024,0.28742 -0.21387,0.43486 -0.25781,0.47266 -0.0439,0.0378 0.0226,0.0191 -0.004,0.01 -0.053,-0.0188 -0.37686,-0.33313 -0.63281,-0.83203 -0.51191,-0.99779 -0.94052,-2.63055 -0.95313,-3.34765 a 0.42699999,0.42699999 0 0 0 -0.43554,-0.41797 z"
         id="path30858-2-2-5-9" /><path
         style="color:#000000;fill:#a0ff8f;stroke-linecap:round;stroke-linejoin:round;-inkscape-stroke:none"
         d="m 173.85742,172.13672 a 0.42699999,0.42699999 0 0 0 -0.49219,0.34961 c -0.13068,0.76049 -0.0242,1.97797 0.25196,2.91601 0.13806,0.46903 0.267,0.88469 0.68554,1.12891 0.20928,0.12211 0.53102,0.12335 0.75196,-0.004 0.22094,-0.12726 0.37424,-0.32209 0.52539,-0.58007 a 0.42699999,0.42699999 0 0 0 -0.15235,-0.58399 0.42699999,0.42699999 0 0 0 -0.58398,0.15234 c -0.0767,0.13084 -0.11221,0.15439 -0.15039,0.19141 -0.0308,-0.0513 -0.15882,-0.2086 -0.25781,-0.54492 -0.22985,-0.78085 -0.31305,-2.03932 -0.22852,-2.53125 a 0.42699999,0.42699999 0 0 0 -0.34961,-0.49414 z"
         id="path30858-2-2-5-1-8" /></g></g></svg>
