<?xml version="1.0" encoding="UTF-8" standalone="no"?>
<!-- Created with Inkscape (http://www.inkscape.org/) -->

<svg
   width="34.666336mm"
   height="42.739243mm"
   viewBox="0 0 34.666336 42.739243"
   version="1.1"
   id="svg5"
   xml:space="preserve"
   inkscape:version="1.2.2 (b0a8486541, 2022-12-01)"
   sodipodi:docname="portfolio.svg"
   xmlns:inkscape="http://www.inkscape.org/namespaces/inkscape"
   xmlns:sodipodi="http://sodipodi.sourceforge.net/DTD/sodipodi-0.dtd"
   xmlns="http://www.w3.org/2000/svg"
   xmlns:svg="http://www.w3.org/2000/svg"><sodipodi:namedview
     id="namedview7"
     pagecolor="#505050"
     bordercolor="#eeeeee"
     borderopacity="1"
     inkscape:showpageshadow="0"
     inkscape:pageopacity="0"
     inkscape:pagecheckerboard="0"
     inkscape:deskcolor="#505050"
     inkscape:document-units="mm"
     showgrid="false"
     inkscape:zoom="5.6568542"
     inkscape:cx="594.85359"
     inkscape:cy="412.77359"
     inkscape:window-width="1920"
     inkscape:window-height="994"
     inkscape:window-x="0"
     inkscape:window-y="0"
     inkscape:window-maximized="1"
     inkscape:current-layer="layer1" /><defs
     id="defs2" /><g
     inkscape:label="Layer 1"
     inkscape:groupmode="layer"
     id="layer1"
     transform="translate(-200.66195,-216.66218)"><g
       id="g7021"><path
         id="rect6920"
         style="fill:none;stroke:#ef0000;stroke-width:2;stroke-linecap:round;stroke-linejoin:round;stroke-dasharray:none;stroke-opacity:1"
         d="m 231.55298,223.83878 c 0.40434,-1.95212 0.53705,-3.93427 -0.164,-6.17661 -2.37494,0.42115 -4.31777,1.58449 -6.20376,2.8453 -1.7688,-0.49536 -3.71209,-0.76946 -5.75417,-0.76946 h -1.6955 c -2.08733,0 -4.07144,0.28616 -5.87148,0.80253 -1.90153,-1.27352 -3.85763,-2.45353 -6.25336,-2.87837 v 0 c -0.71677,2.2926 -0.50788,4.34221 -0.0848,6.33553 -1.69455,1.62495 -2.6877,3.6067 -2.6877,5.75003 v 3.00964 c 0,5.54509 6.64424,10.00921 14.89729,10.00921 h 1.6955 c 8.25305,0 14.89728,-4.46412 14.89728,-10.00921 v -3.00964 c 0,-1.51042 -0.44883,-2.51487 -1.04777,-3.52856"
         sodipodi:nodetypes="cccsscsscssssssc" /><path
         style="fill:none;stroke:#ef0000;stroke-width:2;stroke-linecap:round;stroke-linejoin:round;stroke-dasharray:none;stroke-opacity:1"
         d="m 226.71316,257.36896 c -0.67225,-0.0454 -2.51541,-0.85375 -2.51541,-2.50976 v -5.80435 c 0,-1.88488 -1.32436,-3.94178 -5.32493,-3.94178 -4.00056,0 -5.32492,2.0569 -5.32492,3.94178 v 5.80435 c 0,1.65601 -1.84316,2.46436 -2.51541,2.50976"
         id="path6952-6"
         sodipodi:nodetypes="ccccccc" /><path
         style="fill:none;stroke:#ef0000;stroke-width:2;stroke-linecap:round;stroke-linejoin:round;stroke-dasharray:none;stroke-opacity:1"
         d="m 217.08312,248.03889 v 7.49284 c 0,1.51424 -0.93973,2.42383 -1.85399,2.8697"
         id="path6981"
         sodipodi:nodetypes="ccc" /><path
         style="fill:none;stroke:#ef0000;stroke-width:2;stroke-linecap:round;stroke-linejoin:round;stroke-dasharray:none;stroke-opacity:1"
         d="m 220.62275,248.03889 v 7.49284 c 0,1.51424 0.93973,2.42383 1.85399,2.8697"
         id="path6981-7"
         sodipodi:nodetypes="ccc" /><path
         style="fill:none;stroke:#ef0000;stroke-width:2;stroke-linecap:round;stroke-linejoin:round;stroke-dasharray:none;stroke-opacity:1"
         d="m 201.66195,243.18647 c 3.60806,0.88782 3.37305,6.66771 9.35663,5.64398"
         id="path7010"
         sodipodi:nodetypes="cc" /></g></g></svg>
