<?xml version="1.0" encoding="UTF-8" standalone="no"?>
<!-- Created with Inkscape (http://www.inkscape.org/) -->

<svg
   width="41.230713mm"
   height="41.804073mm"
   viewBox="0 0 41.230713 41.804073"
   version="1.1"
   id="svg5"
   xml:space="preserve"
   xmlns:inkscape="http://www.inkscape.org/namespaces/inkscape"
   xmlns:sodipodi="http://sodipodi.sourceforge.net/DTD/sodipodi-0.dtd"
   xmlns="http://www.w3.org/2000/svg"
   xmlns:svg="http://www.w3.org/2000/svg"><sodipodi:namedview
     id="namedview7"
     pagecolor="#505050"
     bordercolor="#eeeeee"
     borderopacity="1"
     inkscape:showpageshadow="0"
     inkscape:pageopacity="0"
     inkscape:pagecheckerboard="0"
     inkscape:deskcolor="#505050"
     inkscape:document-units="mm"
     showgrid="false" /><defs
     id="defs2" /><g
     inkscape:label="Layer 1"
     inkscape:groupmode="layer"
     id="layer1"
     transform="translate(-53.621904,-35.555102)"><g
       id="g4532"
       inkscape:export-filename="JO_neon.svg"
       inkscape:export-xdpi="1232.1135"
       inkscape:export-ydpi="1232.1135"><path
         style="color:#000000;fill:#a0ff8f;stroke-linecap:round;stroke-linejoin:round;-inkscape-stroke:none"
         d="m 84.013672,36.615234 c -0.86625,-0.0062 -1.787774,0.137264 -2.72461,0.408203 -3.747341,1.083757 -7.864831,4.307184 -9.43164,9.515625 -1.257414,4.17994 -0.494726,8.862722 1.636719,12.556641 2.131445,3.693919 5.717794,6.447048 10.099609,6.466797 9.011628,0.04061 16.055197,-14.323994 7.150391,-24.400391 a 0.87900001,0.87900001 0 0 0 -1.242188,-0.07617 0.87900001,0.87900001 0 0 0 -0.07617,1.240235 c 8.052811,9.112304 1.230468,21.510306 -5.824219,21.478515 -3.651341,-0.01646 -6.688535,-2.299582 -8.585937,-5.58789 -1.897402,-3.288308 -2.568931,-7.532137 -1.474609,-11.169922 1.377789,-4.580096 5.059584,-7.415249 8.236328,-8.333984 1.588372,-0.459368 3.022373,-0.41097 3.894531,-0.0078 0.872158,0.403157 1.309545,1.002011 1.195312,2.330078 -0.410361,4.770843 -4.437865,9.588438 -11.283203,14.634766 a 0.87900001,0.87900001 0 0 0 -0.1875,1.230469 0.87900001,0.87900001 0 0 0 1.230469,0.185546 c 7.005788,-5.16461 11.5082,-10.273564 11.992188,-15.90039 0.162473,-1.888908 -0.772412,-3.412113 -2.208985,-4.076172 -0.718286,-0.332029 -1.530234,-0.487955 -2.396484,-0.494141 z"
         id="path236" /><path
         style="color:#000000;fill:#a0ff8f;stroke-linecap:round;stroke-linejoin:round;-inkscape-stroke:none"
         d="m 71.730469,58.408203 a 0.87900001,0.87900001 0 0 0 -0.669922,0.04102 c -2.570349,1.252879 -5.033811,1.008319 -7.597656,0.841797 -2.563846,-0.166523 -5.300789,-0.223576 -7.765625,1.794921 -1.341526,1.098599 -1.956278,2.712842 -2.058594,4.386719 -0.102316,1.673878 0.271123,3.446942 0.916015,5.107422 0.644893,1.66048 1.564197,3.208158 2.626954,4.416016 1.062756,1.207857 2.267174,2.117509 3.628906,2.308593 1.375176,0.192971 2.675412,-0.134981 3.77539,-0.851562 1.099979,-0.716581 2.015408,-1.791687 2.814454,-3.111328 1.598091,-2.639282 2.75942,-6.293898 3.722656,-10.416016 a 0.87900001,0.87900001 0 0 0 -0.65625,-1.05664 0.87900001,0.87900001 0 0 0 -1.056641,0.65625 c -0.943498,4.037652 -2.097064,7.566693 -3.513672,9.90625 -0.708303,1.169778 -1.476301,2.032078 -2.269531,2.548828 -0.79323,0.51675 -1.595796,0.719054 -2.572266,0.582031 -0.687746,-0.09651 -1.653245,-0.706216 -2.552734,-1.728516 -0.899489,-1.022299 -1.735617,-2.415313 -2.308594,-3.890625 -0.572977,-1.475311 -0.880162,-3.032663 -0.798828,-4.363281 0.08134,-1.330618 0.515227,-2.395141 1.416016,-3.132812 1.972516,-1.615328 4.020073,-1.565826 6.537109,-1.402344 2.517037,0.163482 5.431379,0.471562 8.482422,-1.015625 a 0.87900001,0.87900001 0 0 0 0.404297,-1.175781 0.87900001,0.87900001 0 0 0 -0.503906,-0.445313 z"
         id="path3866" /><path
         style="color:#000000;fill:#a0ff8f;stroke-linecap:round;stroke-linejoin:round;-inkscape-stroke:none"
         d="m 61.732422,35.705078 c -0.701272,0.242857 -1.19415,0.841407 -1.451172,1.5 -0.257022,0.658594 -0.342802,1.40867 -0.339844,2.251953 0.0059,1.686567 0.393829,3.759556 1.011719,5.998047 1.23578,4.476982 3.399512,9.569584 5.560547,12.964844 a 0.87900001,0.87900001 0 0 0 1.214844,0.269531 0.87900001,0.87900001 0 0 0 0.269531,-1.212891 c -2.015882,-3.167205 -4.16601,-8.193265 -5.351563,-12.488281 -0.592776,-2.147508 -0.942308,-4.124055 -0.947265,-5.537109 -0.0025,-0.706527 0.0881,-1.267644 0.220703,-1.607422 0.132601,-0.339778 0.241853,-0.425718 0.388672,-0.476563 0.53125,-0.183976 0.994656,-0.05147 1.707031,0.683594 0.712375,0.735068 1.49311,2.061047 2.191406,3.837891 1.396592,3.553688 2.511089,8.891727 2.966797,15.078125 a 0.87900001,0.87900001 0 0 0 0.941406,0.8125 0.87900001,0.87900001 0 0 0 0.810547,-0.941406 C 70.460216,50.517688 69.339691,45.05755 67.841797,41.246094 67.09285,39.340366 66.26209,37.842226 65.279297,36.828125 64.296503,35.814024 62.980681,35.272795 61.732422,35.705078 Z"
         id="path3871" /></g></g></svg>
