<?xml version="1.0" encoding="UTF-8" standalone="no"?>
<!-- Created with Inkscape (http://www.inkscape.org/) -->

<svg
   width="47.158485mm"
   height="38.294449mm"
   viewBox="0 0 47.158485 38.294449"
   version="1.1"
   id="svg5"
   xml:space="preserve"
   xmlns:inkscape="http://www.inkscape.org/namespaces/inkscape"
   xmlns:sodipodi="http://sodipodi.sourceforge.net/DTD/sodipodi-0.dtd"
   xmlns="http://www.w3.org/2000/svg"
   xmlns:svg="http://www.w3.org/2000/svg"><sodipodi:namedview
     id="namedview7"
     pagecolor="#505050"
     bordercolor="#eeeeee"
     borderopacity="1"
     inkscape:showpageshadow="0"
     inkscape:pageopacity="0"
     inkscape:pagecheckerboard="0"
     inkscape:deskcolor="#505050"
     inkscape:document-units="mm"
     showgrid="false" /><defs
     id="defs2" /><g
     inkscape:label="Layer 1"
     inkscape:groupmode="layer"
     id="layer1"
     transform="translate(-81.30221,-219.75883)"><g
       id="g49698"><path
         id="rect43011"
         style="opacity:1;fill:none;fill-opacity:1;stroke:#a0ff8f;stroke-width:2;stroke-linecap:round;stroke-linejoin:round;stroke-dasharray:none;stroke-opacity:1"
         d="m 122.47289,228.37852 v 28.67474 h 0.24546 c 2.62742,0 4.74234,-2.11544 4.74234,-4.74287 v -31.11386 c 0,-0.14769 -0.008,-0.29353 -0.0207,-0.4377 h 3e-5 l -4.96713,4.23023 m -3.50625,28.57796 v -25.59209 l -16.49357,14.04617 c -1.86317,1.58666 -4.863033,1.58666 -6.726201,0 L 82.302211,230.57167 v 21.73872 c 0,2.62743 2.114926,4.74287 4.742347,4.74287 h 31.922082"
         sodipodi:nodetypes="ccsssscccccscssc" /><path
         style="opacity:1;fill:none;fill-opacity:1;stroke:#a0ff8f;stroke-width:2;stroke-linecap:round;stroke-linejoin:round;stroke-dasharray:none;stroke-opacity:1"
         d="M 99.81652,235.43893 82.302211,220.75882 v 5.34159 l 14.152962,12.00855 c 0,0 1.395398,1.24788 2.909815,1.25824 1.377052,0.009 1.837462,-0.7248 3.035392,-1.92133"
         id="path44475"
         sodipodi:nodetypes="ccccsc" /></g></g></svg>
